# xmcd
#
# Track frame offsets:
#	150
#	8650
#	28430
#	44210
#	65285
#	80835
#	97900
#	124012
#	142855
#	170582
#	198107
#	216052
#	234397
#	248690
#	274027
#	291652
# 
# Disc length: 4348 seconds
# 
# Revision: 2
# Processed by: cddbd v1.5.1PL0 Copyright (c) Steve Scherf et al.
# Submitted via: Advanced CD Ripper Pro
#
DISCID=e710fa10
DTITLE=Leonard Cohen - Cohen Live
DYEAR=1900
DGENRE=
TTITLE0=Dance Me to the End of Love
TTITLE1=Bird On the Wire
TTITLE2=Everybody Knows
TTITLE3=Joan of Arc
TTITLE4=There is a War
TTITLE5=Sisters of Mercy
TTITLE6=Hallelujah
TTITLE7=I'm Your Man
TTITLE8=Who by Fire?
TTITLE9=One of Us Cannot Be Wrong
TTITLE10=If It Be Your Will
TTITLE11=Heart with No Companion
TTITLE12=Suzanne
TTITLE13=
TTITLE14=
TTITLE15=
EXTD=
EXTT0=
EXTT1=
EXTT2=
EXTT3=
EXTT4=
EXTT5=
EXTT6=
EXTT7=
EXTT8=
EXTT9=
EXTT10=
EXTT11=
EXTT12=
EXTT13=
EXTT14=
EXTT15=
PLAYORDER=
